<?xml version="1.0" encoding="UTF-8"?>
<svg version="1.1" xmlns="http://www.w3.org/2000/svg" width="1024" height="1024">
<path d="M0 0 C337.92 0 675.84 0 1024 0 C1024 337.92 1024 675.84 1024 1024 C686.08 1024 348.16 1024 0 1024 C0 686.08 0 348.16 0 0 Z " fill="#050505" transform="translate(0,0)"/>
<path d="M0 0 C61.05 0 122.1 0 185 0 C185 28.05 185 56.1 185 85 C206.78 85 228.56 85 251 85 C251 112.72 251 140.44 251 169 C288.29 169 325.58 169 364 169 C364 141.28 364 113.56 364 85 C386.11 85 408.22 85 431 85 C431 56.95 431 28.9 431 0 C491.72 0 552.44 0 615 0 C615 200.31 615 400.62 615 607 C554.28 607 493.56 607 431 607 C431 488.2 431 369.4 431 247 C409.22 247 387.44 247 365 247 C365 272.74 365 298.48 365 325 C327.38 325 289.76 325 251 325 C251 299.26 251 273.52 251 247 C229.22 247 207.44 247 185 247 C185 365.8 185 484.6 185 607 C123.95 607 62.9 607 0 607 C0 406.69 0 206.38 0 0 Z " fill="#FEFEFE" transform="translate(205,209)"/>
</svg>
