<?xml version="1.0" encoding="UTF-8"?>
<svg version="1.1" xmlns="http://www.w3.org/2000/svg" width="741" height="738">
<path d="M0 0 C1.06694092 -0.01134979 2.13388184 -0.02269958 3.2331543 -0.03439331 C4.40362808 -0.03146271 5.57410187 -0.0285321 6.78004456 -0.0255127 C8.01276093 -0.03398224 9.24547729 -0.04245178 10.51554871 -0.05117798 C13.89794073 -0.07058976 17.2797815 -0.07632358 20.66219211 -0.07443047 C23.48532055 -0.07431087 26.30839721 -0.08287048 29.13151127 -0.09120798 C35.79157174 -0.11045044 42.45150687 -0.11332285 49.11158752 -0.10656738 C55.98333209 -0.09992551 62.85454002 -0.12279421 69.72617573 -0.15988111 C75.62521984 -0.19056413 81.52409121 -0.20193971 87.42321354 -0.1980443 C90.94685177 -0.1959753 94.47007246 -0.20147827 97.99363518 -0.22593689 C101.9226528 -0.25230848 105.85096594 -0.23848664 109.78004456 -0.2208252 C111.53271889 -0.24072006 111.53271889 -0.24072006 113.32080078 -0.26101685 C121.12948878 -0.17919852 121.12948878 -0.17919852 124.56764221 2.57807922 C125.96644582 5.66279749 126.34360699 7.69273015 126.34303284 11.07092285 C126.35306839 12.18525192 126.36310394 13.29958099 126.3734436 14.44767761 C126.36526108 15.64052872 126.35707855 16.83337982 126.34864807 18.06237793 C126.36277992 19.90911858 126.36277992 19.90911858 126.37719727 21.79316711 C126.40587589 25.7229175 126.40892319 29.65206246 126.40724182 33.58190918 C126.40939865 37.52231277 126.42025138 41.4624621 126.44799805 45.40278625 C126.46489325 47.85446051 126.46757978 50.30628022 126.45498657 52.75798035 C126.46186996 53.86285294 126.46875336 54.96772552 126.47584534 56.1060791 C126.47488358 57.08139084 126.47392181 58.05670258 126.47293091 59.06156921 C126.59562851 59.8314064 126.71832611 60.60124359 126.84474182 61.39440918 C130.14694579 63.59587849 131.16311299 63.64791882 135.00294495 63.66564941 C136.57973022 63.68092934 136.57973022 63.68092934 138.18836975 63.69651794 C139.32278503 63.69865799 140.45720032 63.70079803 141.62599182 63.70300293 C144.01792142 63.72815578 146.40984844 63.75355391 148.80177307 63.7791748 C152.58090085 63.80797238 156.35998413 63.83198469 160.13917542 63.85070801 C163.78084655 63.87229144 167.42199871 63.91171962 171.06349182 63.95300293 C172.1979071 63.95311874 173.33232239 63.95323456 174.50111389 63.95335388 C175.55230408 63.96669266 176.60349426 63.98003143 177.6865387 63.99377441 C178.61236755 63.99884506 179.53819641 64.00391571 180.49208069 64.00914001 C183.28630248 64.46671866 184.13354242 65.18666465 185.84474182 67.39440918 C187.16168866 70.02830286 186.99112905 72.02433854 187.01832581 74.97399902 C187.03181564 76.14216156 187.04530548 77.3103241 187.0592041 78.5138855 C187.07486168 80.41540878 187.07486168 80.41540878 187.09083557 82.35534668 C187.11533768 84.33725579 187.13985102 86.31916485 187.16503239 88.30106544 C187.2258532 93.1989544 187.27646779 98.09693804 187.32154846 102.99499512 C187.34720285 105.74041518 187.37802161 108.48568794 187.41433716 111.23098755 C187.44819874 113.81957739 187.47409528 116.40828588 187.49133301 118.99703979 C187.50797501 120.17150665 187.524617 121.34597351 187.54176331 122.55603027 C187.5572245 124.10585098 187.5572245 124.10585098 187.57299805 125.6869812 C187.84596898 128.40663557 188.44990775 130.06969296 189.84474182 132.39440918 C198.1720313 132.41753602 206.49930745 132.43532601 214.82662106 132.44622135 C218.692943 132.45144944 222.55924304 132.45854572 226.42555237 132.46984863 C230.15377583 132.48068018 233.88197817 132.48668658 237.61021614 132.48928642 C239.03563838 132.49114019 240.46105941 132.49475989 241.8864727 132.50013924 C243.8763759 132.50735311 245.86630016 132.50781726 247.85621643 132.50793457 C249.5583152 132.51126549 249.5583152 132.51126549 251.2947998 132.5146637 C253.77933487 132.68415341 253.77933487 132.68415341 254.84474182 131.39440918 C254.95255976 129.48820335 254.99101732 127.57804154 255.00245667 125.66882324 C255.01271881 124.44375061 255.02298096 123.21867798 255.03355408 121.95648193 C255.036992 121.29743111 255.04042992 120.63838028 255.04397202 119.95935822 C255.05573948 117.89950358 255.07518839 115.83986067 255.09709167 113.78009033 C255.1587658 107.9221098 255.21268424 102.06414765 255.24610901 96.20593262 C255.26709026 92.62546949 255.3024266 89.04538669 255.34686661 85.4651413 C255.36100646 84.101687 255.36974451 82.73816534 255.37292099 81.37464142 C255.37784573 79.46220281 255.40264197 77.5498469 255.42823792 75.63757324 C255.44036819 74.00661713 255.44036819 74.00661713 255.45274353 72.3427124 C255.8975795 68.99700569 256.85486468 67.09778611 258.84474182 64.39440918 C261.97992694 62.82681662 265.31631988 63.29473317 268.75489807 63.33190918 C269.55519943 63.3356958 270.35550079 63.33948242 271.18005371 63.34338379 C274.59902904 63.35962585 278.0178839 63.38719887 281.43678284 63.41491699 C292.95186319 63.50025547 304.35791009 63.22704418 315.84474182 62.39440918 C316.8697614 59.31935046 316.98107963 57.18308003 317.00245667 53.96081543 C317.01271881 52.84956299 317.02298096 51.73831055 317.03355408 50.59338379 C317.04450607 48.79332886 317.04450607 48.79332886 317.05567932 46.95690918 C317.08373732 44.42825676 317.11240171 41.899611 317.14161682 39.37097168 C317.18296928 35.37455164 317.22090378 31.37826493 317.24610901 27.38171387 C317.2736172 23.53151619 317.31947847 19.68188912 317.36817932 15.83190918 C317.37143219 14.63187256 317.37468506 13.43183594 317.3780365 12.19543457 C317.39460297 11.08418213 317.41116943 9.97292969 317.42823792 8.82800293 C317.44036819 7.35931763 317.44036819 7.35931763 317.45274353 5.86096191 C317.92457739 2.89206355 318.47916062 2.19392227 320.84474182 0.39440918 C323.20452881 0.01688576 323.20452881 0.01688576 326.04469299 0.01345825 C327.65989334 0.00076904 327.65989334 0.00076904 329.307724 -0.01217651 C330.48911957 -0.00610382 331.67051514 -0.00003113 332.88771057 0.00622559 C334.75382492 -0.00165985 334.75382492 -0.00165985 336.65763855 -0.00970459 C340.0709682 -0.02065797 343.48375344 -0.01807402 346.89705276 -0.00856733 C350.46710702 -0.00097807 354.03713783 -0.0080143 357.60719299 -0.01272583 C363.60275963 -0.01818554 369.59821544 -0.0109862 375.59376526 0.0032959 C382.52788899 0.01962291 389.46174812 0.01433455 396.39586544 -0.00218332 C402.34668971 -0.01579213 408.29743428 -0.01772084 414.24826908 -0.00986731 C417.80361329 -0.00518742 421.35883307 -0.00457449 424.91416931 -0.01447678 C428.87680874 -0.02474231 432.83915118 -0.01051884 436.80177307 0.00622559 C437.98316864 0.00015289 439.16456421 -0.0059198 440.38175964 -0.01217651 C441.45855988 -0.00371704 442.53536011 0.00474243 443.64479065 0.01345825 C445.05067192 0.01515487 445.05067192 0.01515487 446.48495483 0.01688576 C448.84474182 0.39440918 448.84474182 0.39440918 450.60723877 1.41821861 C453.66634306 6.30335649 452.99016957 13.65757483 452.97337627 19.27049637 C452.97512931 20.02478991 452.97688235 20.77908344 452.97868851 21.55623436 C452.98332618 24.0740276 452.98088881 26.59176252 452.97845459 29.10955811 C452.98032366 30.93677402 452.98262475 32.76398953 452.98531991 34.5912044 C452.99143193 39.60490735 452.99130503 44.6185936 452.99012554 49.63229942 C452.98992139 55.0419681 452.99544146 60.45163143 453.00018311 65.86129761 C453.00848583 76.45481753 453.01123773 87.04833189 453.01179548 97.64185479 C453.01227061 106.24861069 453.01432521 114.85536474 453.01749611 123.46212006 C453.02629994 147.8537807 453.03091565 172.24543694 453.03016564 196.63709918 C453.0301057 198.60911607 453.0301057 198.60911607 453.03004456 200.62097168 C453.03000367 201.93725015 453.02996279 203.25352863 453.02992067 204.60969433 C453.02951379 225.96542856 453.03909469 247.32114314 453.05318292 268.6768724 C453.06752832 290.59486676 453.07445419 312.51285252 453.07358915 334.4308517 C453.07325665 346.74037974 453.07602715 359.04988932 453.0867672 371.35941315 C453.09584784 381.83413596 453.09806742 392.30883193 453.09125777 402.78355697 C453.08798082 408.13083052 453.08797811 413.47805248 453.09661102 418.8253212 C453.10442481 423.71529399 453.10309754 428.60517384 453.09432689 433.49514422 C453.09278058 435.26885457 453.09465014 437.04257169 453.10018697 438.81627408 C453.10719131 441.21819251 453.10199769 443.6197798 453.09363079 446.02168655 C453.09859897 446.7180124 453.10356715 447.41433825 453.10868588 448.13176489 C453.07971202 452.03805364 452.65879268 453.76630745 450.84474182 457.39440918 C407.28474182 457.39440918 363.72474182 457.39440918 318.84474182 457.39440918 C317.0431675 453.79126055 316.59499871 452.82126477 316.6070261 449.11557674 C316.6048941 448.26299752 316.6027621 447.4104183 316.60056549 446.53200334 C316.60843754 445.60020063 316.61630958 444.66839792 316.62442017 443.70835876 C316.62503194 442.21795243 316.62503194 442.21795243 316.62565607 440.69743687 C316.62939503 437.35862415 316.64743178 434.02003921 316.66529846 430.68127441 C316.67077215 428.29149563 316.6753225 425.90171457 316.67901611 423.51193237 C316.69000588 417.68941375 316.70989416 411.86697189 316.73296649 406.04448991 C316.75900617 399.26657305 316.77118644 392.48865308 316.78178959 385.71069706 C316.80080315 373.6193286 316.82655585 361.52798614 316.85865784 349.43664551 C316.86153474 348.35113983 316.86153474 348.35113983 316.86446976 347.24370474 C316.88602422 339.16673704 316.90920025 331.08977528 316.93415833 323.01281738 C316.94319028 320.0824789 316.95220672 317.15214037 316.9611969 314.22180176 C316.96341856 313.49870894 316.96564021 312.77561611 316.96792919 312.03061139 C317.00462162 299.98342078 317.02971277 287.93623713 317.04566664 275.88900143 C317.05508296 269.12325881 317.07063943 262.35763219 317.10080147 255.59194756 C317.12886048 249.23331552 317.14343432 242.87480076 317.1474781 236.51610947 C317.15151125 234.17753045 317.16074102 231.838954 317.17544174 229.50041771 C317.19473311 226.31794788 317.19574324 223.1359896 317.19204712 219.95347595 C317.20214988 219.01944252 317.21225265 218.08540909 317.22266155 217.12307161 C317.21792181 216.27310014 317.21318206 215.42312866 317.20829868 214.54740047 C317.21052199 213.8125316 317.2127453 213.07766273 317.21503597 212.32052511 C316.73096692 209.80259955 315.87759067 208.92067852 313.84474182 207.39440918 C311.27667578 207.10623213 308.95250629 207.00243196 306.38473511 207.03364563 C305.61854754 207.03108236 304.85235998 207.02851908 304.0629546 207.02587813 C301.48780771 207.02092476 298.91324318 207.0374584 296.33815002 207.05383301 C294.49536656 207.05467895 292.65258207 207.05420479 290.80979919 207.05250549 C285.79971794 207.05164282 280.78985105 207.06931264 275.77981973 207.09022737 C270.54676661 207.10894881 265.31370888 207.11074102 260.08062744 207.11430359 C250.16775058 207.1236374 240.25497266 207.14826925 230.34213942 207.17835206 C219.05813886 207.21185453 207.77413363 207.22837162 196.49009573 207.24343836 C173.27492285 207.27481764 150.05983787 207.32760408 126.84474182 207.39440918 C126.84658541 208.65246463 126.84842899 209.91052008 126.85032845 211.20669842 C126.89363296 241.06237333 126.92661725 270.91804014 126.94687248 300.77373875 C126.94937393 304.44750721 126.95196257 308.12127559 126.9546051 311.79504395 C126.95512972 312.52643301 126.95565434 313.25782208 126.95619486 314.01137445 C126.9649003 325.85791665 126.98067104 337.70443946 126.99904741 349.55097016 C127.01774259 361.70427646 127.02885774 373.8575726 127.03291881 386.01089269 C127.03566466 393.51168897 127.04434098 401.01243045 127.06057476 408.51320986 C127.07238451 414.26232078 127.07365413 420.01139649 127.07095718 425.76051712 C127.07150859 428.12081681 127.07550246 430.48111852 127.08315277 432.84140587 C127.09307055 436.05834403 127.09072218 439.27504576 127.08525085 442.49198914 C127.09107654 443.43070726 127.09690222 444.36942539 127.10290444 445.33658952 C127.082321 449.7994338 126.96622747 453.34278188 124.84474182 457.39440918 C107.79901402 457.441083 90.7533061 457.47637531 73.70752907 457.49803352 C65.79328402 457.50835608 57.87907861 457.52243504 49.96485901 457.54528809 C43.06865106 457.56519207 36.17247181 457.57811849 29.27623594 457.58258617 C25.6230771 457.58519864 21.9700004 457.59135925 18.31686783 457.60586929 C14.2436022 457.62191758 10.17048034 457.6223908 6.09718323 457.62145996 C4.87942703 457.62865051 3.66167084 457.63584106 2.40701294 457.64324951 C1.30200943 457.64050018 0.19700592 457.63775085 -0.94148254 457.63491821 C-2.38777574 457.63768359 -2.38777574 457.63768359 -3.86328697 457.64050484 C-6.15525818 457.39440918 -6.15525818 457.39440918 -8.15525818 455.39440918 C-8.3531032 452.92521948 -8.42483873 450.56808319 -8.40973377 448.09764194 C-8.41294025 447.33308814 -8.41614673 446.56853434 -8.41945037 445.78081223 C-8.4278211 443.19194038 -8.4218016 440.60329564 -8.41595459 438.01441956 C-8.41897206 436.1504202 -8.42285949 434.28642207 -8.42754716 432.42242616 C-8.43788812 427.27920422 -8.43562992 422.1360515 -8.43136656 416.99282372 C-8.42891034 411.45422801 -8.43789969 405.91564946 -8.44540405 400.37705994 C-8.45818388 389.51834972 -8.45994067 378.6596642 -8.45760379 367.80094773 C-8.45582415 358.97903007 -8.45756263 350.15711993 -8.46182823 341.33520317 C-8.46242342 340.08187704 -8.46301861 338.82855091 -8.46363183 337.5372452 C-8.46484353 334.99150145 -8.46605766 332.44575771 -8.46727421 329.90001398 C-8.47506703 312.79505457 -8.47897661 295.690098 -8.47495747 278.58513737 C-8.47480109 277.91579222 -8.47464471 277.24644707 -8.4744836 276.55681873 C-8.47367778 273.16406399 -8.47283201 269.77130926 -8.4719703 266.37855453 C-8.47179921 265.70470407 -8.47162812 265.03085362 -8.47145185 264.33658345 C-8.4711052 262.97389313 -8.47075667 261.61120281 -8.47040626 260.24851249 C-8.46504804 239.04102477 -8.47298068 217.83357861 -8.49143982 196.62609863 C-8.51213917 172.81680445 -8.5228554 149.00753584 -8.51886433 125.19822973 C-8.51694784 112.58514692 -8.5194833 99.97210199 -8.53357887 87.35902596 C-8.54545628 76.62171093 -8.54693866 65.88445709 -8.53478871 55.14714129 C-8.52887436 49.6643195 -8.52787068 44.18160983 -8.53979111 38.69879532 C-8.5505637 33.68585021 -8.54765046 28.673112 -8.53352942 23.66017693 C-8.53085851 21.84054543 -8.53332309 20.02089816 -8.54126529 18.20128203 C-8.55126942 15.73960585 -8.54303786 13.27866318 -8.52998829 10.81701756 C-8.53729763 10.10030615 -8.54460698 9.38359475 -8.55213782 8.64516482 C-8.52011166 5.75731729 -8.47795638 3.84901044 -6.77817357 1.45444053 C-4.46991481 -0.05323305 -2.74633222 0.01102789 0 0 Z " fill="#FDFDFD" transform="translate(8.155258178710938,280.6055908203125)"/>
<path d="M0 0 C1.06694092 -0.01134979 2.13388184 -0.02269958 3.2331543 -0.03439331 C4.40362808 -0.03146271 5.57410187 -0.0285321 6.78004456 -0.0255127 C8.01276093 -0.03398224 9.24547729 -0.04245178 10.51554871 -0.05117798 C13.89794073 -0.07058976 17.2797815 -0.07632358 20.66219211 -0.07443047 C23.48532055 -0.07431087 26.30839721 -0.08287048 29.13151127 -0.09120798 C35.79157174 -0.11045044 42.45150687 -0.11332285 49.11158752 -0.10656738 C55.98333209 -0.09992551 62.85454002 -0.12279421 69.72617573 -0.15988111 C75.62521984 -0.19056413 81.52409121 -0.20193971 87.42321354 -0.1980443 C90.94685177 -0.1959753 94.47007246 -0.20147827 97.99363518 -0.22593689 C101.9226528 -0.25230848 105.85096594 -0.23848664 109.78004456 -0.2208252 C111.53271889 -0.24072006 111.53271889 -0.24072006 113.32080078 -0.26101685 C121.12948878 -0.17919852 121.12948878 -0.17919852 124.56764221 2.57807922 C125.96644582 5.66279749 126.34360699 7.69273015 126.34303284 11.07092285 C126.35306839 12.18525192 126.36310394 13.29958099 126.3734436 14.44767761 C126.36526108 15.64052872 126.35707855 16.83337982 126.34864807 18.06237793 C126.36277992 19.90911858 126.36277992 19.90911858 126.37719727 21.79316711 C126.40587589 25.7229175 126.40892319 29.65206246 126.40724182 33.58190918 C126.40939865 37.52231277 126.42025138 41.4624621 126.44799805 45.40278625 C126.46489325 47.85446051 126.46757978 50.30628022 126.45498657 52.75798035 C126.46186996 53.86285294 126.46875336 54.96772552 126.47584534 56.1060791 C126.47488358 57.08139084 126.47392181 58.05670258 126.47293091 59.06156921 C126.59562851 59.8314064 126.71832611 60.60124359 126.84474182 61.39440918 C130.14694579 63.59587849 131.16311299 63.64791882 135.00294495 63.66564941 C136.57973022 63.68092934 136.57973022 63.68092934 138.18836975 63.69651794 C139.32278503 63.69865799 140.45720032 63.70079803 141.62599182 63.70300293 C144.01792142 63.72815578 146.40984844 63.75355391 148.80177307 63.7791748 C152.58090085 63.80797238 156.35998413 63.83198469 160.13917542 63.85070801 C163.78084655 63.87229144 167.42199871 63.91171962 171.06349182 63.95300293 C172.1979071 63.95311874 173.33232239 63.95323456 174.50111389 63.95335388 C175.55230408 63.96669266 176.60349426 63.98003143 177.6865387 63.99377441 C178.61236755 63.99884506 179.53819641 64.00391571 180.49208069 64.00914001 C183.28630248 64.46671866 184.13354242 65.18666465 185.84474182 67.39440918 C187.16168866 70.02830286 186.99112905 72.02433854 187.01832581 74.97399902 C187.03181564 76.14216156 187.04530548 77.3103241 187.0592041 78.5138855 C187.07486168 80.41540878 187.07486168 80.41540878 187.09083557 82.35534668 C187.11533768 84.33725579 187.13985102 86.31916485 187.16503239 88.30106544 C187.2258532 93.1989544 187.27646779 98.09693804 187.32154846 102.99499512 C187.34720285 105.74041518 187.37802161 108.48568794 187.41433716 111.23098755 C187.44819874 113.81957739 187.47409528 116.40828588 187.49133301 118.99703979 C187.50797501 120.17150665 187.524617 121.34597351 187.54176331 122.55603027 C187.5572245 124.10585098 187.5572245 124.10585098 187.57299805 125.6869812 C187.84596898 128.40663557 188.44990775 130.06969296 189.84474182 132.39440918 C198.1720313 132.41753602 206.49930745 132.43532601 214.82662106 132.44622135 C218.692943 132.45144944 222.55924304 132.45854572 226.42555237 132.46984863 C230.15377583 132.48068018 233.88197817 132.48668658 237.61021614 132.48928642 C239.03563838 132.49114019 240.46105941 132.49475989 241.8864727 132.50013924 C243.8763759 132.50735311 245.86630016 132.50781726 247.85621643 132.50793457 C249.5583152 132.51126549 249.5583152 132.51126549 251.2947998 132.5146637 C253.77933487 132.68415341 253.77933487 132.68415341 254.84474182 131.39440918 C254.95255976 129.48820335 254.99101732 127.57804154 255.00245667 125.66882324 C255.01271881 124.44375061 255.02298096 123.21867798 255.03355408 121.95648193 C255.036992 121.29743111 255.04042992 120.63838028 255.04397202 119.95935822 C255.05573948 117.89950358 255.07518839 115.83986067 255.09709167 113.78009033 C255.1587658 107.9221098 255.21268424 102.06414765 255.24610901 96.20593262 C255.26709026 92.62546949 255.3024266 89.04538669 255.34686661 85.4651413 C255.36100646 84.101687 255.36974451 82.73816534 255.37292099 81.37464142 C255.37784573 79.46220281 255.40264197 77.5498469 255.42823792 75.63757324 C255.44036819 74.00661713 255.44036819 74.00661713 255.45274353 72.3427124 C255.8975795 68.99700569 256.85486468 67.09778611 258.84474182 64.39440918 C261.97992694 62.82681662 265.31631988 63.29473317 268.75489807 63.33190918 C269.55519943 63.3356958 270.35550079 63.33948242 271.18005371 63.34338379 C274.59902904 63.35962585 278.0178839 63.38719887 281.43678284 63.41491699 C292.95186319 63.50025547 304.35791009 63.22704418 315.84474182 62.39440918 C316.8697614 59.31935046 316.98107963 57.18308003 317.00245667 53.96081543 C317.01271881 52.84956299 317.02298096 51.73831055 317.03355408 50.59338379 C317.04450607 48.79332886 317.04450607 48.79332886 317.05567932 46.95690918 C317.08373732 44.42825676 317.11240171 41.899611 317.14161682 39.37097168 C317.18296928 35.37455164 317.22090378 31.37826493 317.24610901 27.38171387 C317.2736172 23.53151619 317.31947847 19.68188912 317.36817932 15.83190918 C317.37143219 14.63187256 317.37468506 13.43183594 317.3780365 12.19543457 C317.39460297 11.08418213 317.41116943 9.97292969 317.42823792 8.82800293 C317.44036819 7.35931763 317.44036819 7.35931763 317.45274353 5.86096191 C317.92457739 2.89206355 318.47916062 2.19392227 320.84474182 0.39440918 C323.20452881 0.01688576 323.20452881 0.01688576 326.04469299 0.01345825 C327.65989334 0.00076904 327.65989334 0.00076904 329.307724 -0.01217651 C330.48911957 -0.00610382 331.67051514 -0.00003113 332.88771057 0.00622559 C334.75382492 -0.00165985 334.75382492 -0.00165985 336.65763855 -0.00970459 C340.0709682 -0.02065797 343.48375344 -0.01807402 346.89705276 -0.00856733 C350.46710702 -0.00097807 354.03713783 -0.0080143 357.60719299 -0.01272583 C363.60275963 -0.01818554 369.59821544 -0.0109862 375.59376526 0.0032959 C382.52788899 0.01962291 389.46174812 0.01433455 396.39586544 -0.00218332 C402.34668971 -0.01579213 408.29743428 -0.01772084 414.24826908 -0.00986731 C417.80361329 -0.00518742 421.35883307 -0.00457449 424.91416931 -0.01447678 C428.87680874 -0.02474231 432.83915118 -0.01051884 436.80177307 0.00622559 C437.98316864 0.00015289 439.16456421 -0.0059198 440.38175964 -0.01217651 C441.45855988 -0.00371704 442.53536011 0.00474243 443.64479065 0.01345825 C445.05067192 0.01515487 445.05067192 0.01515487 446.48495483 0.01688576 C448.84474182 0.39440918 448.84474182 0.39440918 450.60723877 1.41821861 C453.66634306 6.30335649 452.99016957 13.65757483 452.97337627 19.27049637 C452.97512931 20.02478991 452.97688235 20.77908344 452.97868851 21.55623436 C452.98332618 24.0740276 452.98088881 26.59176252 452.97845459 29.10955811 C452.98032366 30.93677402 452.98262475 32.76398953 452.98531991 34.5912044 C452.99143193 39.60490735 452.99130503 44.6185936 452.99012554 49.63229942 C452.98992139 55.0419681 452.99544146 60.45163143 453.00018311 65.86129761 C453.00848583 76.45481753 453.01123773 87.04833189 453.01179548 97.64185479 C453.01227061 106.24861069 453.01432521 114.85536474 453.01749611 123.46212006 C453.02629994 147.8537807 453.03091565 172.24543694 453.03016564 196.63709918 C453.0301057 198.60911607 453.0301057 198.60911607 453.03004456 200.62097168 C453.03000367 201.93725015 453.02996279 203.25352863 453.02992067 204.60969433 C453.02951379 225.96542856 453.03909469 247.32114314 453.05318292 268.6768724 C453.06752832 290.59486676 453.07445419 312.51285252 453.07358915 334.4308517 C453.07325665 346.74037974 453.07602715 359.04988932 453.0867672 371.35941315 C453.09584784 381.83413596 453.09806742 392.30883193 453.09125777 402.78355697 C453.08798082 408.13083052 453.08797811 413.47805248 453.09661102 418.8253212 C453.10442481 423.71529399 453.10309754 428.60517384 453.09432689 433.49514422 C453.09278058 435.26885457 453.09465014 437.04257169 453.10018697 438.81627408 C453.10719131 441.21819251 453.10199769 443.6197798 453.09363079 446.02168655 C453.09859897 446.7180124 453.10356715 447.41433825 453.10868588 448.13176489 C453.07971202 452.03805364 452.65879268 453.76630745 450.84474182 457.39440918 C407.28474182 457.39440918 363.72474182 457.39440918 318.84474182 457.39440918 C317.0431675 453.79126055 316.59499871 452.82126477 316.6070261 449.11557674 C316.6048941 448.26299752 316.6027621 447.4104183 316.60056549 446.53200334 C316.60843754 445.60020063 316.61630958 444.66839792 316.62442017 443.70835876 C316.62503194 442.21795243 316.62503194 442.21795243 316.62565607 440.69743687 C316.62939503 437.35862415 316.64743178 434.02003921 316.66529846 430.68127441 C316.67077215 428.29149563 316.6753225 425.90171457 316.67901611 423.51193237 C316.69000588 417.68941375 316.70989416 411.86697189 316.73296649 406.04448991 C316.75900617 399.26657305 316.77118644 392.48865308 316.78178959 385.71069706 C316.80080315 373.6193286 316.82655585 361.52798614 316.85865784 349.43664551 C316.86153474 348.35113983 316.86153474 348.35113983 316.86446976 347.24370474 C316.88602422 339.16673704 316.90920025 331.08977528 316.93415833 323.01281738 C316.94319028 320.0824789 316.95220672 317.15214037 316.9611969 314.22180176 C316.96341856 313.49870894 316.96564021 312.77561611 316.96792919 312.03061139 C317.00462162 299.98342078 317.02971277 287.93623713 317.04566664 275.88900143 C317.05508296 269.12325881 317.07063943 262.35763219 317.10080147 255.59194756 C317.12886048 249.23331552 317.14343432 242.87480076 317.1474781 236.51610947 C317.15151125 234.17753045 317.16074102 231.838954 317.17544174 229.50041771 C317.19473311 226.31794788 317.19574324 223.1359896 317.19204712 219.95347595 C317.20214988 219.01944252 317.21225265 218.08540909 317.22266155 217.12307161 C317.21792181 216.27310014 317.21318206 215.42312866 317.20829868 214.54740047 C317.21052199 213.8125316 317.2127453 213.07766273 317.21503597 212.32052511 C316.73096692 209.80259955 315.87759067 208.92067852 313.84474182 207.39440918 C311.27667578 207.10623213 308.95250629 207.00243196 306.38473511 207.03364563 C305.61854754 207.03108236 304.85235998 207.02851908 304.0629546 207.02587813 C301.48780771 207.02092476 298.91324318 207.0374584 296.33815002 207.05383301 C294.49536656 207.05467895 292.65258207 207.05420479 290.80979919 207.05250549 C285.79971794 207.05164282 280.78985105 207.06931264 275.77981973 207.09022737 C270.54676661 207.10894881 265.31370888 207.11074102 260.08062744 207.11430359 C250.16775058 207.1236374 240.25497266 207.14826925 230.34213942 207.17835206 C219.05813886 207.21185453 207.77413363 207.22837162 196.49009573 207.24343836 C173.27492285 207.27481764 150.05983787 207.32760408 126.84474182 207.39440918 C126.84658541 208.65246463 126.84842899 209.91052008 126.85032845 211.20669842 C126.89363296 241.06237333 126.92661725 270.91804014 126.94687248 300.77373875 C126.94937393 304.44750721 126.95196257 308.12127559 126.9546051 311.79504395 C126.95512972 312.52643301 126.95565434 313.25782208 126.95619486 314.01137445 C126.9649003 325.85791665 126.98067104 337.70443946 126.99904741 349.55097016 C127.01774259 361.70427646 127.02885774 373.8575726 127.03291881 386.01089269 C127.03566466 393.51168897 127.04434098 401.01243045 127.06057476 408.51320986 C127.07238451 414.26232078 127.07365413 420.01139649 127.07095718 425.76051712 C127.07150859 428.12081681 127.07550246 430.48111852 127.08315277 432.84140587 C127.09307055 436.05834403 127.09072218 439.27504576 127.08525085 442.49198914 C127.09107654 443.43070726 127.09690222 444.36942539 127.10290444 445.33658952 C127.082321 449.7994338 126.96622747 453.34278188 124.84474182 457.39440918 C107.79901402 457.441083 90.7533061 457.47637531 73.70752907 457.49803352 C65.79328402 457.50835608 57.87907861 457.52243504 49.96485901 457.54528809 C43.06865106 457.56519207 36.17247181 457.57811849 29.27623594 457.58258617 C25.6230771 457.58519864 21.9700004 457.59135925 18.31686783 457.60586929 C14.2436022 457.62191758 10.17048034 457.6223908 6.09718323 457.62145996 C4.87942703 457.62865051 3.66167084 457.63584106 2.40701294 457.64324951 C1.30200943 457.64050018 0.19700592 457.63775085 -0.94148254 457.63491821 C-2.38777574 457.63768359 -2.38777574 457.63768359 -3.86328697 457.64050484 C-6.15525818 457.39440918 -6.15525818 457.39440918 -8.15525818 455.39440918 C-8.3531032 452.92521948 -8.42483873 450.56808319 -8.40973377 448.09764194 C-8.41294025 447.33308814 -8.41614673 446.56853434 -8.41945037 445.78081223 C-8.4278211 443.19194038 -8.4218016 440.60329564 -8.41595459 438.01441956 C-8.41897206 436.1504202 -8.42285949 434.28642207 -8.42754716 432.42242616 C-8.43788812 427.27920422 -8.43562992 422.1360515 -8.43136656 416.99282372 C-8.42891034 411.45422801 -8.43789969 405.91564946 -8.44540405 400.37705994 C-8.45818388 389.51834972 -8.45994067 378.6596642 -8.45760379 367.80094773 C-8.45582415 358.97903007 -8.45756263 350.15711993 -8.46182823 341.33520317 C-8.46242342 340.08187704 -8.46301861 338.82855091 -8.46363183 337.5372452 C-8.46484353 334.99150145 -8.46605766 332.44575771 -8.46727421 329.90001398 C-8.47506703 312.79505457 -8.47897661 295.690098 -8.47495747 278.58513737 C-8.47480109 277.91579222 -8.47464471 277.24644707 -8.4744836 276.55681873 C-8.47367778 273.16406399 -8.47283201 269.77130926 -8.4719703 266.37855453 C-8.47179921 265.70470407 -8.47162812 265.03085362 -8.47145185 264.33658345 C-8.4711052 262.97389313 -8.47075667 261.61120281 -8.47040626 260.24851249 C-8.46504804 239.04102477 -8.47298068 217.83357861 -8.49143982 196.62609863 C-8.51213917 172.81680445 -8.5228554 149.00753584 -8.51886433 125.19822973 C-8.51694784 112.58514692 -8.5194833 99.97210199 -8.53357887 87.35902596 C-8.54545628 76.62171093 -8.54693866 65.88445709 -8.53478871 55.14714129 C-8.52887436 49.6643195 -8.52787068 44.18160983 -8.53979111 38.69879532 C-8.5505637 33.68585021 -8.54765046 28.673112 -8.53352942 23.66017693 C-8.53085851 21.84054543 -8.53332309 20.02089816 -8.54126529 18.20128203 C-8.55126942 15.73960585 -8.54303786 13.27866318 -8.52998829 10.81701756 C-8.53729763 10.10030615 -8.54460698 9.38359475 -8.55213782 8.64516482 C-8.52011166 5.75731729 -8.47795638 3.84901044 -6.77817357 1.45444053 C-4.46991481 -0.05323305 -2.74633222 0.01102789 0 0 Z M-5.77639598 2.45701963 C-7.85455519 5.3769662 -7.56544103 8.31722325 -7.52998829 11.77016544 C-7.53404901 12.53110757 -7.53810974 13.29204969 -7.54229352 14.07605067 C-7.55230393 16.64671381 -7.54077569 19.21683925 -7.52947998 21.78749084 C-7.53221834 23.64069231 -7.5362685 25.49389224 -7.54152364 27.34708828 C-7.552152 32.45581609 -7.54395471 37.56437 -7.53277314 42.67309034 C-7.52395904 48.17620266 -7.53236651 53.67929153 -7.53863525 59.18240356 C-7.54814144 69.9691369 -7.54150761 80.75580352 -7.52937231 91.54253192 C-7.5157775 104.0922073 -7.51738792 116.64186663 -7.51950564 129.19154751 C-7.52279469 152.25267533 -7.5098675 175.31377207 -7.4896606 198.37488821 C-7.47128812 219.4415441 -7.46547867 240.50816606 -7.47093201 261.5748291 C-7.47127844 262.92759884 -7.47162454 264.28036857 -7.4719703 265.63313831 C-7.47214129 266.30191187 -7.47231229 266.97068544 -7.47248846 267.65972487 C-7.47334196 271.02601379 -7.47416575 274.39230272 -7.47495747 277.75859165 C-7.47511455 278.42266232 -7.47527163 279.08673298 -7.47543347 279.770927 C-7.47942036 297.35810184 -7.47390687 314.94527345 -7.46544617 332.53244632 C-7.46423883 335.05221395 -7.46303284 337.57198157 -7.46182823 340.09174919 C-7.46122469 341.33166831 -7.46062115 342.57158744 -7.45999933 343.84907987 C-7.45611244 352.60661362 -7.45651677 361.36414129 -7.45841408 370.12167549 C-7.46053139 380.78652507 -7.45534718 391.45134193 -7.44080053 402.11618228 C-7.43353347 407.56240708 -7.4294991 413.00858413 -7.43404388 418.454813 C-7.43809727 423.43309034 -7.43302102 428.41126874 -7.42041781 433.38953101 C-7.41747119 435.19767261 -7.41794977 437.00582344 -7.42206088 438.81396277 C-7.42711561 441.25759376 -7.42005041 443.700887 -7.40973377 446.14449406 C-7.41413026 446.85873359 -7.41852674 447.57297312 -7.42305645 448.30885628 C-7.49633851 452.29674431 -7.49633851 452.29674431 -5.15525818 455.39440918 C-2.83647232 455.69587403 -2.83647232 455.69587403 -0.10679626 455.64164734 C0.96166031 455.64584183 2.03011688 455.65003632 3.13095093 455.65435791 C4.30816208 455.6487384 5.48537323 455.6431189 6.69825745 455.6373291 C7.93404037 455.63922745 9.1698233 455.64112579 10.4430542 455.64308167 C13.83768014 455.64615788 17.23206397 455.64026549 20.6266613 455.63012862 C24.17449169 455.62135948 27.72231784 455.62310535 31.27015686 455.62348938 C37.2287974 455.6225522 43.18738707 455.61386107 49.14601135 455.60021973 C56.04086224 455.58449363 62.9356574 455.5792216 69.83052492 455.57995528 C76.45560767 455.58056512 83.08067222 455.57546371 89.70574951 455.56716347 C92.5286778 455.56362763 95.35159964 455.56179979 98.17453003 455.56126976 C102.11344889 455.56008099 106.05232115 455.55037801 109.9912262 455.53967285 C111.16843735 455.54012604 112.3456485 455.54057922 113.55853271 455.54104614 C114.62698929 455.53678116 115.69544586 455.53251617 116.79627991 455.52812195 C118.19443058 455.52560818 118.19443058 455.52560818 119.62082672 455.52304363 C121.88472215 455.53892682 121.88472215 455.53892682 123.84474182 454.39440918 C123.84805197 453.11812716 123.85136211 451.84184513 123.85477257 450.52688789 C123.93372555 420.25633131 124.02292071 389.98582428 124.12479343 359.71533681 C124.13731287 355.99263853 124.14974556 352.26993996 124.16212463 348.54724121 C124.16459063 347.80609337 124.16705662 347.06494553 124.16959734 346.30133866 C124.20936216 334.28789596 124.24209298 322.27444382 124.27224164 310.26097359 C124.30331405 297.94154025 124.34190525 285.62214717 124.38753188 273.30275905 C124.41546582 265.69603297 124.43747748 258.08933647 124.45200433 250.48257278 C124.46375512 244.65773744 124.48594755 238.8329719 124.51212502 233.00818253 C124.52123351 230.6127732 124.52689858 228.21734806 124.52895546 225.8219223 C124.53225499 222.56448766 124.54766927 219.30733505 124.56626892 216.04995728 C124.56433419 215.09082778 124.56239945 214.13169829 124.56040609 213.14350426 C124.56787158 212.27564006 124.57533707 211.40777586 124.58302879 210.51361275 C124.58644628 209.38470421 124.58644628 209.38470421 124.5899328 208.23298943 C124.84474182 206.39440918 124.84474182 206.39440918 126.84474182 204.39440918 C129.36344085 204.19915724 131.77198559 204.12948465 134.29165649 204.14717102 C135.45697384 204.1435494 135.45697384 204.1435494 136.64583296 204.13985461 C139.26308266 204.13419453 141.88009077 204.142898 144.49732971 204.15148926 C146.36790025 204.15041696 148.23847047 204.14847905 150.10903931 204.14573669 C155.19976737 204.14087724 160.29040818 204.14855746 165.38112569 204.15868974 C170.69780843 204.16745116 176.01448827 204.16571317 181.33117676 204.16532898 C190.25994839 204.16626641 199.18868611 204.17496148 208.1174469 204.18859863 C218.45575504 204.20432979 228.79402602 204.20959662 239.13234526 204.20886308 C249.05928889 204.20825374 258.98622035 204.21335029 268.91316032 204.22165489 C273.1464135 204.22519489 277.37966237 204.22701916 281.61291695 204.2275486 C286.59260746 204.22854966 291.5722665 204.2346268 296.55194664 204.24471474 C298.38500399 204.24764724 300.21806497 204.2488636 302.05112457 204.2482872 C304.5423873 204.24780008 307.03356048 204.25341673 309.52481079 204.26069641 C310.25981389 204.25914781 310.99481698 204.25759921 311.7520929 204.25600368 C316.73056322 204.28023057 316.73056322 204.28023057 317.84474182 205.39440918 C317.9485921 208.57306201 317.9863106 211.73026371 317.98277283 214.90951538 C317.98559411 215.92097409 317.98841539 216.93243281 317.99132216 217.97454178 C317.99970993 221.39168615 318.00100996 224.8087983 318.00245667 228.22595215 C318.00712177 230.66455172 318.01226482 233.10315042 318.01785278 235.54174805 C318.02915665 240.80684245 318.03763047 246.07193045 318.04397202 251.33703232 C318.05428076 259.65518059 318.07483963 267.97328868 318.09709167 276.29141235 C318.10457192 279.13495432 318.11198556 281.97849646 318.11937904 284.82203865 C318.12122961 285.5327285 318.12308018 286.24341835 318.12498682 286.97564425 C318.14592687 295.07112058 318.16474908 303.16660135 318.18263245 311.26208496 C318.18427063 312.00240499 318.18590881 312.74272502 318.18759663 313.50547899 C318.21388709 325.50525526 318.23252664 337.50503461 318.24922435 349.50482748 C318.26662991 361.81413504 318.29545908 374.12338199 318.33411372 386.43264115 C318.35754609 394.03100909 318.37151118 401.62927824 318.37344135 409.22768261 C318.37579514 415.04711533 318.3936308 420.8664343 318.41731071 426.68582153 C318.42453389 429.0775872 318.42659019 431.46937465 318.42320824 433.86114883 C318.41933969 437.11609416 318.43368331 440.37045602 318.45274353 443.62533569 C318.44721383 444.58087023 318.44168414 445.53640476 318.43598688 446.52089489 C318.44482672 447.39013343 318.45366656 448.25937198 318.46277428 449.1549511 C318.46413081 449.906635 318.46548733 450.6583189 318.46688497 451.4327811 C318.951423 453.94824009 319.84290769 454.84109739 321.84474182 456.39440918 C324.2431975 456.84325439 324.2431975 456.84325439 326.97549438 456.76863098 C328.56762001 456.77915245 328.56762001 456.77915245 330.19190979 456.78988647 C331.35617493 456.78224274 332.52044006 456.774599 333.71998596 456.76672363 C334.94616135 456.7703743 336.17233673 456.77402496 337.43566895 456.77778625 C340.79935661 456.78451001 344.1624925 456.777769 347.52612615 456.76445413 C351.04325615 456.75314644 354.56037169 456.75724654 358.07751465 456.75920105 C363.98312642 456.76008413 369.88862342 456.74899987 375.79420471 456.73059082 C382.62719466 456.70941314 389.46001658 456.70591529 396.29303271 456.71215278 C402.86100111 456.71784189 409.42891019 456.71220678 415.99687004 456.70097923 C418.79468823 456.69632822 421.5924702 456.69546154 424.39029121 456.69756508 C428.29322219 456.69979362 432.19599244 456.68535869 436.09889221 456.66906738 C437.84832626 456.67278351 437.84832626 456.67278351 439.63310242 456.67657471 C440.69169968 456.6694899 441.75029694 456.66240509 442.8409729 456.65510559 C444.22611383 456.65202629 444.22611383 456.65202629 445.6392374 456.64888477 C448.05139379 456.60202168 448.05139379 456.60202168 449.84474182 454.39440918 C450.04078521 451.92837032 450.11070151 449.57479702 450.09363079 447.10767269 C450.09623808 446.34420807 450.09884536 445.58074344 450.10153165 444.79414353 C450.10788051 442.20898898 450.09983853 439.62407286 450.09197998 437.03892517 C450.09356666 435.17762587 450.09602885 433.31632714 450.09929639 431.45503002 C450.10573839 426.31934176 450.09961983 421.18373177 450.09153211 416.04804862 C450.08497677 410.51767632 450.08989883 404.98731309 450.09341431 399.4569397 C450.09846614 388.61493769 450.09280244 377.77296609 450.08356401 366.93096786 C450.07320178 354.31880948 450.07324961 341.70665774 450.07373659 329.0944959 C450.07425283 305.91953429 450.06420334 282.744588 450.04923415 259.56963265 C450.03560791 238.395744 450.0293729 217.22186663 450.03004456 196.04797363 C450.03008497 194.68833307 450.03012533 193.32869251 450.03016564 191.96905195 C450.03018599 191.29688396 450.03020634 190.62471597 450.0302273 189.93217926 C450.03032809 186.54885629 450.03041868 183.16553332 450.03049755 179.78221035 C450.03051426 179.11479001 450.03053098 178.44736966 450.0305482 177.75972446 C450.03099129 156.2965122 450.0238743 134.83330193 450.01613471 113.3700913 C450.01311208 104.56751733 450.0120544 95.76494435 450.0116024 86.96236992 C450.01092185 76.24367845 450.00647934 65.52499597 449.99726959 54.80630832 C449.99263717 49.33187205 449.98961139 43.85744732 449.9908638 38.38300896 C449.99195288 33.38009944 449.98847723 28.37721551 449.98121528 23.37431134 C449.97939089 21.55606208 449.97928227 19.73781021 449.98098256 17.91956084 C449.98302538 15.46477768 449.97902358 13.01008018 449.97337627 10.55530453 C449.97543159 9.83494344 449.97748691 9.11458236 449.97960451 8.37239215 C450.2463721 5.1021531 450.2463721 5.1021531 448.84474182 2.39440918 C447.18716562 2.29829499 445.52547196 2.27253163 443.8651123 2.27415466 C442.78672592 2.27278 441.70833954 2.27140533 440.59727478 2.26998901 C439.40397552 2.27358429 438.21067627 2.27717957 436.98121643 2.28088379 C435.73261337 2.28073776 434.48401031 2.28059174 433.1975708 2.28044128 C429.76383188 2.28102027 426.33015244 2.28604963 422.89642406 2.29301524 C419.31161723 2.2992492 415.7268097 2.29985261 412.14199829 2.30104065 C405.34924137 2.30415384 398.55650047 2.31236706 391.76375061 2.32239014 C384.03231688 2.33355165 376.30088241 2.33906182 368.56944263 2.34408557 C352.66119974 2.35454969 336.75297284 2.37214889 320.84474182 2.39440918 C319.5351014 5.01369002 319.69851456 6.98067379 319.67115784 9.91394043 C319.65092308 11.64583618 319.65092308 11.64583618 319.63027954 13.41271973 C319.61984116 14.66480225 319.60940277 15.91688477 319.59864807 17.20690918 C319.57414898 19.16191395 319.54963867 21.11691865 319.52445126 23.07191467 C319.4635756 27.9055608 319.41291014 32.73930195 319.36793518 37.57312012 C319.34233166 40.28341693 319.3115385 42.99356206 319.27514648 45.70373535 C319.24118724 48.26109309 319.21533753 50.81857318 319.19815063 53.37609863 C319.18150864 54.5306958 319.16486664 55.68529297 319.14772034 56.87487793 C319.13741287 57.89476807 319.12710541 58.9146582 319.1164856 59.9654541 C318.84474182 62.39440918 318.84474182 62.39440918 316.84474182 64.39440918 C314.45375061 64.65942383 314.45375061 64.65942383 311.41700745 64.68151855 C310.28243103 64.69493286 309.14785461 64.70834717 307.97889709 64.72216797 C306.74868835 64.72744507 305.51847961 64.73272217 304.25099182 64.73815918 C302.9933905 64.75278198 301.73578918 64.76740479 300.44007874 64.7824707 C295.722959 64.8370504 291.0058181 64.87410889 286.28852844 64.91009521 C281.67169436 64.94625123 277.05516234 64.99697868 272.43849182 65.05065918 C271.20828308 65.05593628 269.97807434 65.06121338 268.71058655 65.06665039 C267.57601013 65.0800647 266.44143372 65.093479 265.2724762 65.1072998 C263.76928833 65.11823669 263.76928833 65.11823669 262.23573303 65.12939453 C259.65971316 65.16283447 259.65971316 65.16283447 257.84474182 67.39440918 C257.51199617 70.26747709 257.51199617 70.26747709 257.52589417 73.68005371 C257.51584854 74.32408142 257.50580292 74.96810913 257.49545288 75.63165283 C257.46452599 77.76349991 257.44755989 79.89522088 257.43067932 82.02722168 C257.41197526 83.50411064 257.39240242 84.98098883 257.37199402 86.45785522 C257.32058606 90.34744935 257.28100697 94.23707816 257.24385071 98.12683105 C257.20386515 102.0950179 257.15274804 106.0630594 257.10255432 110.03112793 C257.00569256 117.81878877 256.92132087 125.6065197 256.84474182 133.39440918 C247.88281787 133.44069068 238.92093487 133.47625698 229.95891762 133.49803352 C225.79776929 133.50848364 221.63670256 133.5226651 217.4756012 133.54528809 C213.46207753 133.56697289 209.44863249 133.57896855 205.43505478 133.58416367 C203.90159746 133.58786729 202.36814458 133.59509929 200.83472061 133.60586929 C198.69164381 133.62032647 196.54889447 133.62238958 194.40577698 133.62145996 C192.57377243 133.6281218 192.57377243 133.6281218 190.70475769 133.63491821 C187.84474182 133.39440918 187.84474182 133.39440918 185.84474182 131.39440918 C185.5864563 128.82705688 185.5864563 128.82705688 185.57350159 125.53942871 C185.56331497 124.31120392 185.55312836 123.08297913 185.54263306 121.8175354 C185.54169207 121.15935947 185.54075108 120.50118355 185.53978157 119.8230629 C185.53612336 117.76330621 185.51941211 115.70403342 185.49902344 113.64437866 C185.44356212 107.78819786 185.41294129 101.93194494 185.38844299 96.07556152 C185.37255645 92.49397654 185.34232397 88.91273336 185.30367851 85.33132553 C185.29203519 83.96703601 185.28609822 82.6026853 185.28599739 81.2383461 C185.28580508 79.32824232 185.26601357 77.41817101 185.24537659 75.50817871 C185.24030594 74.42167023 185.23523529 73.33516174 185.23001099 72.21572876 C184.78751458 68.97533507 184.26911737 67.59033811 181.84474182 65.39440918 C179.29010997 64.8148118 179.29010997 64.8148118 176.36354065 64.94030762 C174.68213737 64.9407608 174.68213737 64.9407608 172.96676636 64.94122314 C171.75731857 64.96186829 170.54787079 64.98251343 169.30177307 65.00378418 C168.0630394 65.00944397 166.82430573 65.01510376 165.54803467 65.02093506 C162.25809904 65.03954694 158.96894701 65.0754725 155.67927551 65.11975098 C152.32111703 65.16070289 148.96284377 65.17894578 145.60450745 65.19909668 C139.01761169 65.2432453 132.43124086 65.31021959 125.84474182 65.39440918 C124.80280242 62.26859098 124.70802652 60.05744815 124.68702698 56.77722168 C124.67676483 55.62592773 124.66650269 54.47463379 124.65592957 53.28845215 C124.64862823 52.04466797 124.6413269 50.80088379 124.63380432 49.51940918 C124.60574628 46.89961115 124.5770819 44.27981956 124.54786682 41.66003418 C124.50536477 37.51879215 124.46857946 33.37759105 124.44337463 29.23620605 C124.4184443 25.24705735 124.37000741 21.25834018 124.32130432 17.26940918 C124.31642502 15.40373291 124.31642502 15.40373291 124.31144714 13.50036621 C124.29488068 12.34907227 124.27831421 11.19777832 124.26124573 10.01159668 C124.25315887 8.99694336 124.24507202 7.98229004 124.23674011 6.93688965 C123.77064098 3.91379496 123.24618968 3.22210264 120.84474182 1.39440918 C118.46624564 0.94291426 118.46624564 0.94291426 115.75868225 1.01345825 C114.70712448 1.00499878 113.65556671 0.99653931 112.57214355 0.98782349 C110.84212852 0.99693253 110.84212852 0.99693253 109.0771637 1.00622559 C107.86234818 1.00096863 106.64753265 0.99571167 105.39590454 0.99029541 C102.06314618 0.9793428 98.73094545 0.98192545 95.39821815 0.99143267 C91.91224537 0.99902257 88.42629658 0.99198552 84.94032288 0.98727417 C79.08599056 0.98181465 73.23177175 0.98901331 67.37745667 1.0032959 C60.60692547 1.01962289 53.83666528 1.01433451 47.06614065 0.99781668 C41.25544205 0.98420734 35.44482508 0.98227942 29.6341157 0.99013269 C26.16260746 0.99481229 22.69122664 0.99542631 19.21972656 0.98552322 C15.35048367 0.97525671 11.48154488 0.98948201 7.61231995 1.00622559 C6.45897659 1.00015289 5.30563324 0.9940802 4.11734009 0.98782349 C3.06578232 0.99628296 2.01422455 1.00474243 0.93080139 1.01345825 C0.01567024 1.01458933 -0.89946091 1.01572041 -1.8423233 1.01688576 C-4.14742958 1.23232886 -4.14742958 1.23232886 -5.77639598 2.45701963 Z " fill="#676766" transform="translate(8.155258178710938,280.6055908203125)"/>
<path d="M0 0 C0.33 0 0.66 0 1 0 C1.7462423 5.32080966 2.14472118 10.49932599 2.12863445 15.87608719 C2.13038749 16.63038073 2.13214053 17.38467426 2.13394669 18.16182518 C2.13858436 20.67961842 2.13614699 23.19735334 2.13371277 25.71514893 C2.13558184 27.54236484 2.13788293 29.36958035 2.14057809 31.19679523 C2.14669011 36.21049817 2.14656321 41.22418442 2.14538372 46.23789024 C2.14517957 51.64755892 2.15069964 57.05722225 2.15544128 62.46688843 C2.16374401 73.06040835 2.16649591 83.65392271 2.16705366 94.24744561 C2.16752879 102.85420151 2.16958338 111.46095556 2.17275429 120.06771088 C2.18155812 144.45937152 2.18617383 168.85102776 2.18542381 193.24269 C2.18536388 195.21470689 2.18536388 195.21470689 2.18530273 197.2265625 C2.18526185 198.54284098 2.18522097 199.85911945 2.18517885 201.21528515 C2.18477197 222.57101938 2.19435287 243.92673396 2.2084411 265.28246322 C2.2227865 287.20045758 2.22971237 309.11844334 2.22884732 331.03644252 C2.22851482 343.34597056 2.23128532 355.65548014 2.24202538 367.96500397 C2.25110602 378.43972678 2.2533256 388.91442275 2.24651595 399.38914779 C2.243239 404.73642134 2.24323629 410.0836433 2.2518692 415.43091202 C2.25968299 420.32088481 2.25835571 425.21076466 2.24958507 430.10073504 C2.24803876 431.87444539 2.24990832 433.64816251 2.25544515 435.4218649 C2.26244949 437.82378333 2.25725587 440.22537062 2.24888897 442.62727737 C2.25385715 443.32360322 2.25882533 444.01992908 2.26394406 444.73735571 C2.2349702 448.64364446 1.81405086 450.37189827 0 454 C-43.56 454 -87.12 454 -132 454 C-133.80157432 450.39685137 -134.24974311 449.42685559 -134.23771572 445.72116756 C-134.23984772 444.86858834 -134.24197972 444.01600912 -134.24417633 443.13759416 C-134.23630429 442.20579145 -134.22843224 441.27398874 -134.22032166 440.31394958 C-134.21991381 439.32034536 -134.21950596 438.32674113 -134.21908575 437.30302769 C-134.21534679 433.96421498 -134.19731004 430.62563003 -134.17944336 427.28686523 C-134.17396968 424.89708645 -134.16941932 422.50730539 -134.16572571 420.11752319 C-134.15473595 414.29500457 -134.13484766 408.47256271 -134.11177533 402.65008073 C-134.08573565 395.87216387 -134.07355538 389.0942439 -134.06295223 382.31628788 C-134.04393867 370.22491942 -134.01818598 358.13357696 -133.98608398 346.04223633 C-133.98320708 344.95673065 -133.98320708 344.95673065 -133.98027206 343.84929556 C-133.9587176 335.77232786 -133.93554157 327.6953661 -133.9105835 319.6184082 C-133.90155155 316.68806972 -133.8925351 313.75773119 -133.88354492 310.82739258 C-133.88132327 310.10429976 -133.87910161 309.38120693 -133.87681263 308.63620221 C-133.8401202 296.5890116 -133.81502905 284.54182795 -133.79907519 272.49459225 C-133.78965886 265.72884963 -133.77410239 258.96322301 -133.74394035 252.19753838 C-133.71588134 245.83890634 -133.7013075 239.48039158 -133.69726372 233.12170029 C-133.69323058 230.78312127 -133.6840008 228.44454482 -133.66930008 226.10600853 C-133.65000871 222.9235387 -133.64899859 219.74158042 -133.6526947 216.55906677 C-133.64259194 215.62503334 -133.63248917 214.69099991 -133.62208027 213.72866243 C-133.62918989 212.45370522 -133.62918989 212.45370522 -133.63644314 211.15299129 C-133.63421983 210.41812242 -133.63199653 209.68325355 -133.62970585 208.92611593 C-134.1137749 206.40819037 -134.96715115 205.52626934 -137 204 C-139.56801587 203.71182858 -141.89227985 203.6080163 -144.46000671 203.63923645 C-145.22434525 203.6366684 -145.98868378 203.63410034 -146.77618408 203.63145447 C-149.35319805 203.62647688 -151.92963102 203.64307784 -154.5065918 203.65942383 C-156.3792586 203.66034252 -158.25192645 203.65994289 -160.12459278 203.65832806 C-165.14878551 203.65764955 -170.17276477 203.67506259 -175.19690704 203.69615936 C-179.907849 203.71321849 -184.61873851 203.71404731 -189.32971191 203.71618652 C-203.11566966 203.73194125 -216.90158751 203.77382456 -230.6875 203.8125 C-261.480625 203.874375 -292.27375 203.93625 -324 204 C-324 284.85 -324 365.7 -324 449 C-324.66 449.33 -325.32 449.66 -326 450 C-326.04558788 418.4403145 -326.08100005 386.88063834 -326.10213066 355.32092763 C-326.10463219 351.59822904 -326.10722082 347.87553052 -326.10986328 344.15283203 C-326.1103879 343.41168419 -326.11091252 342.67053635 -326.11145304 341.90692948 C-326.12016467 329.89346432 -326.1359388 317.88001824 -326.15430559 305.86656441 C-326.17298359 293.54716075 -326.18411226 281.22776711 -326.18817699 268.90834987 C-326.19092642 261.30159763 -326.19962204 253.69489927 -326.21583293 246.0881636 C-326.22761683 240.26336164 -326.22891667 234.4385876 -326.22621536 228.61377335 C-326.22676801 226.21834989 -326.23077812 223.82292449 -326.23841095 221.42751312 C-326.24828595 218.1701147 -326.24599627 214.91295137 -326.24050903 211.6555481 C-326.24633472 210.6964186 -326.2521604 209.73728911 -326.25816262 208.74909508 C-326.25418052 207.88123088 -326.25019842 207.01336668 -326.24609566 206.11920357 C-326.2468551 205.36659787 -326.24761454 204.61399218 -326.24839699 203.83858025 C-326 202 -326 202 -324 200 C-321.4836687 199.80257057 -319.07731112 199.7306908 -316.55981445 199.74603271 C-315.39555545 199.74135274 -315.39555545 199.74135274 -314.20777607 199.73657823 C-311.59286844 199.72856644 -308.97819083 199.73493416 -306.36328125 199.74121094 C-304.49433251 199.73850248 -302.62538484 199.73494238 -300.75643921 199.73059082 C-295.66978226 199.72144721 -290.58320613 199.72501918 -285.4965477 199.73134899 C-280.18299892 199.7363988 -274.86945724 199.73172039 -269.5559082 199.72857666 C-260.63133497 199.72493403 -251.70679479 199.72974388 -242.78222656 199.73925781 C-232.45187258 199.75014292 -222.12159753 199.74661756 -211.79124546 199.735605 C-202.93518935 199.72654056 -194.07915705 199.72524271 -185.2230978 199.73048234 C-179.92790368 199.73360669 -174.6327467 199.73399868 -169.33755493 199.72740936 C-164.36029983 199.72164876 -159.38314688 199.72560912 -154.40590286 199.73719788 C-152.57487788 199.73985137 -150.74384435 199.7390677 -148.91282272 199.73467255 C-146.42182602 199.72924271 -143.93116087 199.73601974 -141.44018555 199.74603271 C-140.70809529 199.74157127 -139.97600504 199.73710983 -139.22173023 199.73251319 C-134.22830016 199.77169984 -134.22830016 199.77169984 -132 202 C-131.74749231 203.83627892 -131.74749231 203.83627892 -131.7438736 206.11361694 C-131.7376415 206.98024775 -131.73140941 207.84687855 -131.72498846 208.73977089 C-131.72828743 209.69753614 -131.73158641 210.6553014 -131.73498535 211.64208984 C-131.72841345 213.1616179 -131.72841345 213.1616179 -131.72170877 214.71184349 C-131.70932343 218.12825225 -131.7112013 221.5445088 -131.71289062 224.9609375 C-131.70687065 227.40130849 -131.69994749 229.84167739 -131.69218445 232.28204346 C-131.6772627 237.54767658 -131.66831558 242.81326932 -131.66447449 248.07891846 C-131.65873512 255.69439861 -131.64016182 263.30980636 -131.61803395 270.92525458 C-131.58229174 283.2828402 -131.55398749 295.6404299 -131.53173828 307.99804688 C-131.53040329 308.73806371 -131.5290683 309.47808055 -131.52769285 310.24052215 C-131.51691554 316.24539126 -131.50649674 322.25026099 -131.4960928 328.25513077 C-131.48698337 333.50407186 -131.47773081 338.75301267 -131.46826172 344.00195312 C-131.46693098 344.74107177 -131.46560023 345.48019042 -131.46422917 346.24170661 C-131.44182303 358.55215557 -131.41163912 370.86257359 -131.37586927 383.1729908 C-131.35416893 390.77218128 -131.33957385 398.37132361 -131.33403051 405.97054338 C-131.3292933 411.78799351 -131.31453583 417.60538982 -131.29603004 423.42281342 C-131.29012892 425.81500398 -131.28768699 428.20720583 -131.28886986 430.59940338 C-131.29002025 433.85233869 -131.27908333 437.1050105 -131.26501465 440.35791016 C-131.26831362 441.31567541 -131.2716126 442.27344067 -131.27501154 443.26022911 C-131.26877944 444.12685991 -131.26254735 444.99349072 -131.2561264 445.88638306 C-131.25493223 446.63790461 -131.25373805 447.38942616 -131.25250769 448.16372108 C-131.15422524 450.24856582 -131.15422524 450.24856582 -129 452 C-126.69822253 452.30711854 -126.69822253 452.30711854 -123.98950195 452.26069641 C-122.92945953 452.26778122 -121.86941711 452.27486603 -120.7772522 452.28216553 C-119.02546158 452.2784494 -119.02546158 452.2784494 -117.23828125 452.2746582 C-116.01225189 452.27976913 -114.78622253 452.28488007 -113.52304077 452.29014587 C-110.15528276 452.30168803 -106.78777036 452.30411176 -103.42000961 452.30158257 C-100.61166761 452.30051478 -97.80334845 452.30539123 -94.99501133 452.310188 C-88.37198244 452.32129193 -81.74901026 452.32171542 -75.12597656 452.31567383 C-68.2855901 452.3096301 -61.44540912 452.321953 -54.60505772 452.3432439 C-48.73835465 452.36083514 -42.87171715 452.36686525 -37.00498867 452.36360615 C-33.49827427 452.3617894 -29.99170648 452.36446827 -26.48501587 452.37832069 C-22.57716743 452.39317966 -18.66958266 452.38395064 -14.76171875 452.37231445 C-13.59385834 452.37995819 -12.42599792 452.38760193 -11.2227478 452.39547729 C-10.16270538 452.38846298 -9.10266296 452.38144867 -8.01049805 452.3742218 C-7.08577194 452.37438954 -6.16104584 452.37455729 -5.20829773 452.37473011 C-4.11519035 452.18923871 -4.11519035 452.18923871 -3 452 C-0.59341694 448.39012541 -0.71693115 445.78761943 -0.73828697 441.61865711 C-0.73229288 440.47634514 -0.73229288 440.47634514 -0.72617769 439.31095615 C-0.715138 436.7383929 -0.71841385 434.1660424 -0.7215271 431.59346008 C-0.71652794 429.73883306 -0.71065328 427.88420823 -0.70397437 426.02958649 C-0.68811432 420.91704684 -0.6847404 415.80456204 -0.68332577 410.69200075 C-0.67964216 405.18482852 -0.66449195 399.67768676 -0.65071106 394.17053223 C-0.62840163 384.6236382 -0.61341053 375.07675495 -0.60334396 365.52984047 C-0.58877877 351.72648726 -0.56324807 337.92317162 -0.53501268 324.11984041 C-0.48950533 301.72663226 -0.45288977 279.33341751 -0.421875 256.94018555 C-0.39172005 235.18301444 -0.35738572 213.4258565 -0.31738281 191.66870117 C-0.31615181 190.99826465 -0.31492081 190.32782812 -0.3136525 189.63707534 C-0.30128584 182.90438749 -0.2888341 176.17169979 -0.27632002 169.43901222 C-0.17134898 112.95935997 -0.08073961 56.47969175 0 0 Z " fill="#202020" transform="translate(459,284)"/>
<path d="M0 0 C63.36 0 126.72 0 192 0 C192.33 1.65 192.66 3.3 193 5 C192.49634289 4.51244075 191.99268578 4.0248815 191.47376633 3.52254772 C188.14830643 1.4758017 185.20491617 1.59302643 181.41973877 1.63923645 C180.65454422 1.6366684 179.88934967 1.63410034 179.10096741 1.63145447 C176.52705983 1.62648608 173.95373694 1.64306296 171.37988281 1.65942383 C169.50709426 1.66034273 167.63430466 1.65994253 165.76151657 1.65832806 C160.74152708 1.65765015 155.72175167 1.67505069 150.70181274 1.69615936 C145.99309608 1.71323104 141.28443176 1.714048 136.57568359 1.71618652 C122.80042732 1.73193502 109.02521097 1.77381841 95.25 1.8125 C64.4775 1.874375 33.705 1.93625 2 2 C2 82.85 2 163.7 2 247 C1.34 247.33 0.68 247.66 0 248 C0 166.16 0 84.32 0 0 Z " fill="#000100" transform="translate(133,486)"/>
<path d="M0 0 C0.33 0 0.66 0 1 0 C1.15020679 31.83147626 1.29531172 63.6629706 1.4332476 95.49450224 C1.4495195 99.24853226 1.46583511 103.00256209 1.48217773 106.7565918 C1.48543066 107.50398318 1.48868358 108.25137456 1.49203508 109.02141417 C1.54487978 121.13902289 1.60126931 133.25661268 1.6589582 145.3741992 C1.71802962 157.79867525 1.77331641 170.22316394 1.82505554 182.64767271 C1.85712745 190.32044858 1.89218685 197.99319904 1.93101191 205.66594375 C1.9604172 211.53945759 1.98456884 217.41298546 2.00670624 223.28653145 C2.01665112 225.70334271 2.02833408 228.12014749 2.04183006 230.53694153 C2.05991596 233.82088809 2.07191192 237.10480011 2.08229065 240.38877869 C2.08909444 241.35860292 2.09589823 242.32842715 2.10290819 243.32764 C2.10440054 244.20047994 2.10589289 245.07331988 2.10743046 245.97260952 C2.11255668 247.11120093 2.11255668 247.11120093 2.11778647 248.27279419 C2 250 2 250 1 251 C-0.69095411 251.10054605 -2.38612467 251.13076345 -4.08006287 251.13371277 C-5.18080139 251.13797775 -6.28153992 251.14224274 -7.41563416 251.14663696 C-8.63384354 251.14618378 -9.85205292 251.14573059 -11.10717773 251.14526367 C-13.01915451 251.15030159 -13.01915451 251.15030159 -14.96975708 251.15544128 C-18.47592345 251.16430165 -21.98206543 251.16662025 -25.48824191 251.16725707 C-28.41085224 251.16820451 -31.33345683 251.1718809 -34.25606495 251.17542917 C-41.14898439 251.18358149 -48.04189075 251.18601269 -54.93481445 251.18530273 C-62.05517385 251.18470175 -69.17545753 251.19525593 -76.29579777 251.2110464 C-82.40026089 251.22410369 -88.50469922 251.2294874 -94.60917622 251.22884732 C-98.25895759 251.2285918 -101.90867173 251.23147282 -105.55843925 251.24202538 C-109.62682176 251.25346638 -113.69503368 251.24897069 -117.76342773 251.24291992 C-119.58770546 251.25134918 -119.58770546 251.25134918 -121.44883728 251.25994873 C-122.55239563 251.25575424 -123.65595398 251.25155975 -124.79295349 251.24723816 C-126.23729846 251.24805531 -126.23729846 251.24805531 -127.71082211 251.24888897 C-130 251 -130 251 -132 249 C-131.625 246.875 -131.625 246.875 -131 245 C-130.34 245.99 -129.68 246.98 -129 248 C-126.64778804 248.44753043 -126.64778804 248.44753043 -123.8621521 248.36076355 C-122.77624472 248.36489604 -121.69033733 248.36902853 -120.57152367 248.37328625 C-118.76953986 248.35709476 -118.76953986 248.35709476 -116.93115234 248.34057617 C-115.65223932 248.34093778 -114.3733263 248.34129938 -113.05565834 248.34167194 C-109.58941235 248.34235052 -106.12347571 248.32493639 -102.65730286 248.30384064 C-99.40736734 248.28678284 -96.15744569 248.28595276 -92.9074707 248.28381348 C-83.396606 248.26805808 -73.88579912 248.22617477 -64.375 248.1875 C-43.13125 248.125625 -21.8875 248.06375 0 248 C0 166.16 0 84.32 0 0 Z " fill="#434242" transform="translate(132,487)"/>
<path d="M0 0 C0.33 0 0.66 0 1 0 C1.7462423 5.32080966 2.14472118 10.49932599 2.12863445 15.87608719 C2.13038749 16.63038073 2.13214053 17.38467426 2.13394669 18.16182518 C2.13858436 20.67961842 2.13614699 23.19735334 2.13371277 25.71514893 C2.13558184 27.54236484 2.13788293 29.36958035 2.14057809 31.19679523 C2.14669011 36.21049817 2.14656321 41.22418442 2.14538372 46.23789024 C2.14517957 51.64755892 2.15069964 57.05722225 2.15544128 62.46688843 C2.16374401 73.06040835 2.16649591 83.65392271 2.16705366 94.24744561 C2.16752879 102.85420151 2.16958338 111.46095556 2.17275429 120.06771088 C2.18155812 144.45937152 2.18617383 168.85102776 2.18542381 193.24269 C2.18536388 195.21470689 2.18536388 195.21470689 2.18530273 197.2265625 C2.18526185 198.54284098 2.18522097 199.85911945 2.18517885 201.21528515 C2.18477197 222.57101938 2.19435287 243.92673396 2.2084411 265.28246322 C2.2227865 287.20045758 2.22971237 309.11844334 2.22884732 331.03644252 C2.22851482 343.34597056 2.23128532 355.65548014 2.24202538 367.96500397 C2.25110602 378.43972678 2.2533256 388.91442275 2.24651595 399.38914779 C2.243239 404.73642134 2.24323629 410.0836433 2.2518692 415.43091202 C2.25968299 420.32088481 2.25835571 425.21076466 2.24958507 430.10073504 C2.24803876 431.87444539 2.24990832 433.64816251 2.25544515 435.4218649 C2.26244949 437.82378333 2.25725587 440.22537062 2.24888897 442.62727737 C2.25385715 443.32360322 2.25882533 444.01992908 2.26394406 444.73735571 C2.23730144 448.32934427 1.95603241 450.94169175 0 454 C-1.32 453.67 -2.64 453.34 -4 453 C-3.51293569 452.49477806 -3.02587139 451.98955612 -2.52404755 451.46902442 C-0.48614566 448.16753325 -0.58197716 445.25726818 -0.61523914 441.49560928 C-0.61008924 440.73291412 -0.60493933 439.97021896 -0.59963337 439.18441182 C-0.58595451 436.61384738 -0.59371594 434.04378903 -0.60127258 431.47320557 C-0.59583642 429.6177138 -0.58908625 427.76222549 -0.58113068 425.90674281 C-0.5630422 420.79643347 -0.56367015 415.68626897 -0.56726015 410.57593513 C-0.56788223 405.0694541 -0.5512805 399.56302242 -0.53674316 394.05656433 C-0.51391635 384.51240935 -0.50206502 374.96829096 -0.49761391 365.42411041 C-0.49116252 351.62474208 -0.46824297 337.82544002 -0.44127061 324.02609834 C-0.39796124 301.63899071 -0.36799255 279.25188312 -0.34643555 256.86474609 C-0.32546001 235.11440666 -0.29820864 213.36408991 -0.26245117 191.61376953 C-0.26135169 190.94346453 -0.26025222 190.27315953 -0.25911942 189.58254226 C-0.2480712 182.85113398 -0.23689528 176.11972591 -0.2256258 169.388318 C-0.13110988 112.92556545 -0.05814482 56.46280097 0 0 Z " fill="#0B0B0A" transform="translate(459,284)"/>
<path d="M0 0 C0.33 0 0.66 0 1 0 C1.04629055 7.7884635 1.08185242 15.57689492 1.10362434 23.36546135 C1.11407249 26.98180873 1.12825032 30.59806216 1.15087891 34.21435547 C1.1725708 37.70268811 1.18456085 41.19093024 1.18975449 44.6793251 C1.19526169 46.66139971 1.21088034 48.64343779 1.22659302 50.62545776 C1.22674408 51.82655182 1.22689514 53.02764587 1.22705078 54.26513672 C1.231492 55.32658905 1.23593323 56.38804138 1.24050903 57.48165894 C1 60 1 60 -1 62 C-3.39772034 62.27174377 -3.39772034 62.27174377 -6.44360352 62.30297852 C-8.15030968 62.32794151 -8.15030968 62.32794151 -9.89149475 62.35340881 C-11.12484055 62.36182297 -12.35818634 62.37023712 -13.62890625 62.37890625 C-14.88887924 62.39590073 -16.14885223 62.4128952 -17.44700623 62.43040466 C-20.79869384 62.47463608 -24.15025939 62.51091583 -27.5020752 62.54260254 C-32.2310602 62.58827021 -36.95989754 62.64409462 -41.68870544 62.70530701 C-44.20822508 62.73740145 -46.72781769 62.76424781 -49.24745178 62.78553772 C-50.38210373 62.79902756 -51.51675568 62.8125174 -52.68579102 62.82641602 C-53.69013687 62.83592789 -54.69448273 62.84543976 -55.72926331 62.85523987 C-57.96707263 62.74684352 -57.96707263 62.74684352 -59 64 C-59.11854912 66.04962928 -59.16741891 68.10331343 -59.18945312 70.15625 C-59.20617065 71.47431641 -59.22288818 72.79238281 -59.2401123 74.15039062 C-59.25013527 75.21350464 -59.25013527 75.21350464 -59.26036072 76.2980957 C-59.28132641 78.50805436 -59.30835322 80.71786331 -59.33703613 82.92773438 C-59.39682493 87.61843261 -59.44894546 92.30919963 -59.5 97 C-59.55913718 102.43341919 -59.62135822 107.86676443 -59.69187927 113.30004883 C-59.71854494 115.48321178 -59.73930438 117.6663818 -59.7598877 119.84960938 C-59.77660522 121.16767578 -59.79332275 122.48574219 -59.81054688 123.84375 C-59.82933899 125.59461914 -59.82933899 125.59461914 -59.84851074 127.38085938 C-60 130 -60 130 -61 131 C-63.13657042 131.10478906 -65.27664338 131.13856654 -67.41577148 131.14526367 C-68.08570129 131.14862228 -68.7556311 131.1519809 -69.44586182 131.15544128 C-71.67095774 131.16497721 -73.89597863 131.16689572 -76.12109375 131.16796875 C-77.66187064 131.17117953 -79.20264722 131.17454346 -80.74342346 131.17805481 C-83.97747505 131.18405272 -87.21149988 131.18589404 -90.44555664 131.18530273 C-94.5964752 131.18520108 -98.74722283 131.19885353 -102.89810085 131.21607494 C-106.08161716 131.2271754 -109.26509188 131.22922255 -112.44862556 131.22869301 C-113.97928519 131.22987607 -115.5099458 131.23431603 -117.04058647 131.24202538 C-119.17879188 131.25178599 -121.31662298 131.24896305 -123.45483398 131.24291992 C-124.67315414 131.24434494 -125.8914743 131.24576996 -127.14671326 131.24723816 C-130 131 -130 131 -132 129 C-132.24050903 126.36776733 -132.24050903 126.36776733 -132.22705078 122.98974609 C-132.22689972 121.72858978 -132.22674866 120.46743347 -132.22659302 119.1680603 C-132.21637898 117.78651778 -132.20594697 116.40497685 -132.1953125 115.0234375 C-132.19158288 113.61382243 -132.18873567 112.20420477 -132.18673706 110.79458618 C-132.17909655 107.08240618 -132.15944461 103.37038239 -132.1373291 99.65826416 C-132.11687959 95.87115594 -132.10773727 92.0840225 -132.09765625 88.296875 C-132.076199 80.86451207 -132.04205816 73.43227792 -132 66 C-131.67 66 -131.34 66 -131 66 C-130.99191315 66.73027405 -130.98382629 67.4605481 -130.97549438 68.21295166 C-130.89751607 75.09900575 -130.81021552 81.98488553 -130.71247292 88.87068558 C-130.66255175 92.41065816 -130.61622157 95.95060151 -130.578125 99.49072266 C-130.53415758 103.56171388 -130.47452336 107.63234509 -130.4140625 111.703125 C-130.40251129 112.97303284 -130.39096008 114.24294067 -130.37905884 115.55133057 C-130.35918915 116.73225281 -130.33931946 117.91317505 -130.31884766 119.12988281 C-130.30552399 120.16912903 -130.29220032 121.20837524 -130.2784729 122.27911377 C-129.99973163 125.00262216 -129.39725813 126.67171504 -128 129 C-119.67271053 129.02312684 -111.34543437 129.04091683 -103.01812077 129.05181217 C-99.15179882 129.05704026 -95.28549879 129.06413654 -91.41918945 129.07543945 C-87.69096599 129.086271 -83.96276366 129.0922774 -80.23452568 129.09487724 C-78.80910344 129.09673101 -77.38368241 129.10035071 -75.95826912 129.10573006 C-73.96836592 129.11294393 -71.97844166 129.11340808 -69.98852539 129.11352539 C-68.28642662 129.11685631 -68.28642662 129.11685631 -66.54994202 129.12025452 C-64.06540695 129.28974423 -64.06540695 129.28974423 -63 128 C-62.89218207 126.09379417 -62.8537245 124.18363236 -62.84228516 122.27441406 C-62.82689194 120.43680511 -62.82689194 120.43680511 -62.81118774 118.56207275 C-62.80603086 117.57349651 -62.80603086 117.57349651 -62.80076981 116.56494904 C-62.78900234 114.5050944 -62.76955343 112.44545149 -62.74765015 110.38568115 C-62.68597603 104.52770062 -62.63205758 98.66973847 -62.59863281 92.81152344 C-62.57765156 89.23106031 -62.54231522 85.65097751 -62.49787521 82.07073212 C-62.48373536 80.70727782 -62.47499731 79.34375616 -62.47182083 77.98023224 C-62.46689609 76.06779363 -62.44209985 74.15543772 -62.41650391 72.24316406 C-62.40841705 71.15585999 -62.4003302 70.06855591 -62.39199829 68.94830322 C-61.94716232 65.60259651 -60.98987714 63.70337693 -59 61 C-55.86481488 59.43240744 -52.52842194 59.90032399 -49.08984375 59.9375 C-48.28954239 59.94128662 -47.48924103 59.94507324 -46.66468811 59.94897461 C-43.24571278 59.96521667 -39.82685792 59.99278969 -36.40795898 60.02050781 C-24.89287863 60.10584629 -13.48683173 59.832635 -2 59 C-0.97593888 55.92781664 -0.8453464 53.73987825 -0.79467773 50.51879883 C-0.77473251 49.39786331 -0.75478729 48.2769278 -0.73423767 47.12202454 C-0.71752518 45.91257675 -0.70081268 44.70312897 -0.68359375 43.45703125 C-0.6524221 41.59893074 -0.6524221 41.59893074 -0.62062073 39.70329285 C-0.56628203 36.41374744 -0.51604049 33.12417274 -0.46777344 29.83453369 C-0.41749354 26.47622186 -0.36184139 23.11799954 -0.30664062 19.75976562 C-0.19946952 13.17324841 -0.09769865 6.58666416 0 0 Z " fill="#484948" transform="translate(326,284)"/>
<path d="M0 0 C16.48960107 -0.11677273 32.97906815 -0.20495818 49.4689827 -0.25906086 C57.12545844 -0.2848488 64.78167737 -0.32001015 72.43798828 -0.37719727 C79.11081415 -0.42701472 85.78345405 -0.45928674 92.45646071 -0.47044247 C95.99027383 -0.47696423 99.5235549 -0.49230308 103.05719757 -0.52865028 C107.00079868 -0.56888576 110.94387805 -0.56995047 114.88769531 -0.56762695 C116.64743935 -0.59459152 116.64743935 -0.59459152 118.44273376 -0.62210083 C126.28510275 -0.5719162 126.28510275 -0.5719162 129.72587585 2.18069458 C131.12024967 5.26608126 131.49886497 7.29946305 131.49829102 10.67651367 C131.50832657 11.79084274 131.51836212 12.90517181 131.52870178 14.05326843 C131.52051926 15.24611954 131.51233673 16.43897064 131.50390625 17.66796875 C131.5180381 19.5147094 131.5180381 19.5147094 131.53245544 21.39875793 C131.56113407 25.32850832 131.56418137 29.25765328 131.5625 33.1875 C131.56465683 37.12790359 131.57550956 41.06805292 131.60325623 45.00837708 C131.62015143 47.46005133 131.62283795 49.91187104 131.61024475 52.36357117 C131.61712814 53.46844376 131.62401154 54.57331635 131.63110352 55.71166992 C131.63014175 56.68698166 131.62917999 57.6622934 131.62818909 58.66716003 C131.75088669 59.43699722 131.87358429 60.20683441 132 61 C135.30220397 63.20146931 136.31837117 63.25350964 140.15820312 63.27124023 C141.7349884 63.28652016 141.7349884 63.28652016 143.34362793 63.30210876 C144.47804321 63.30424881 145.6124585 63.30638885 146.78125 63.30859375 C149.1731796 63.3337466 151.56510662 63.35914473 153.95703125 63.38476562 C157.73615903 63.4135632 161.51524231 63.43757552 165.29443359 63.45629883 C168.93610473 63.47788226 172.57725689 63.51731044 176.21875 63.55859375 C177.35316528 63.55870956 178.48758057 63.55882538 179.65637207 63.5589447 C180.70756226 63.57228348 181.75875244 63.58562225 182.84179688 63.59936523 C183.76762573 63.60443588 184.69345459 63.60950653 185.64733887 63.61473083 C188 64 188 64 189.80110168 65.13656616 C191.55390223 67.86092385 191.35957309 69.99243174 191.34057617 73.21557617 C191.34034958 74.4966777 191.34012299 75.77777924 191.33988953 77.09770203 C191.32456957 78.49612781 191.30892158 79.89455004 191.29296875 81.29296875 C191.28737268 82.72357234 191.28310263 84.15418169 191.28010559 85.58479309 C191.26865756 89.34801132 191.23919115 93.11088156 191.20599365 96.8739624 C191.17529163 100.71475517 191.1616 104.55560423 191.14648438 108.39648438 C191.11432106 115.93114814 191.06312566 123.46552529 191 131 C190.67 131 190.34 131 190 131 C189.99191315 130.22992111 189.98382629 129.45984222 189.97549438 128.66642761 C189.89758096 121.41215257 189.8103004 114.15807961 189.71247292 106.90404797 C189.66250882 103.17459527 189.61617897 99.44517092 189.578125 95.71557617 C189.54127335 92.11687631 189.49491407 88.51841349 189.44193649 84.91991615 C189.42339183 83.54643216 189.4082841 82.17289735 189.39665604 80.79933739 C189.37979563 78.87678472 189.34962546 76.95436266 189.31884766 75.03198242 C189.29886215 73.38984016 189.29886215 73.38984016 189.2784729 71.71452332 C189.19095 68.78062437 189.19095 68.78062437 187 66 C184.55334358 65.54332548 184.55334358 65.54332548 181.6640625 65.61523438 C180.54950684 65.60512329 179.43495117 65.59501221 178.28662109 65.58459473 C176.47411865 65.58912659 176.47411865 65.58912659 174.625 65.59375 C172.77189209 65.57749573 172.77189209 65.57749573 170.88134766 65.56091309 C166.92089039 65.52652109 162.96057256 65.51041248 159 65.5 C153.79144043 65.48630652 148.58338183 65.45193458 143.375 65.40625 C141.56249756 65.41078186 141.56249756 65.41078186 139.71337891 65.41540527 C138.59882324 65.40529419 137.48426758 65.39518311 136.3359375 65.38476562 C135.35157715 65.38271118 134.3672168 65.38065674 133.35302734 65.37854004 C132.57652832 65.25362183 131.8000293 65.12870361 131 65 C128.73082703 61.59624055 128.74153419 60.36483752 128.71289062 56.36694336 C128.69947632 55.21242172 128.68606201 54.05790009 128.67224121 52.86839294 C128.66432556 50.99801109 128.66432556 50.99801109 128.65625 49.08984375 C128.6416272 47.81146133 128.62700439 46.53307892 128.61193848 45.21595764 C128.55741468 40.42705423 128.52028413 35.63813043 128.48431396 30.84906006 C128.44816062 26.15833508 128.39744329 21.4679076 128.34375 16.77734375 C128.33583435 14.90392555 128.33583435 14.90392555 128.32775879 12.99266052 C128.31434448 11.84129105 128.30093018 10.68992157 128.28710938 9.50366211 C128.27617249 7.97835121 128.27617249 7.97835121 128.26501465 6.42222595 C128.23589533 3.8185574 128.23589533 3.8185574 126 2 C123.69254399 1.68551964 123.69254399 1.68551964 120.9760437 1.7215271 C119.91311096 1.71036362 118.85017822 1.69920013 117.7550354 1.68769836 C115.99853165 1.68445808 115.99853165 1.68445808 114.20654297 1.68115234 C112.97730103 1.67110672 111.74805908 1.6610611 110.48156738 1.65071106 C107.1057235 1.62506618 103.7300487 1.60824337 100.35414648 1.59528303 C96.82801845 1.57967973 93.30197628 1.55288066 89.77590942 1.5272522 C83.09655681 1.48041464 76.41718814 1.44369471 69.73775494 1.41057932 C62.13441456 1.37239301 54.5311603 1.32297377 46.92789245 1.27259517 C31.28532383 1.16920133 15.64270698 1.07996527 0 1 C0 0.67 0 0.34 0 0 Z " fill="#444444" transform="translate(3,281)"/>
<path d="M0 0 C0.33 0 0.66 0 1 0 C1.00808685 0.73027405 1.01617371 1.4605481 1.02450562 2.21295166 C1.10248393 9.09900575 1.18978448 15.98488553 1.28752708 22.87068558 C1.33744825 26.41065816 1.38377843 29.95060151 1.421875 33.49072266 C1.46584242 37.56171388 1.52547664 41.63234509 1.5859375 45.703125 C1.59748871 46.97303284 1.60903992 48.24294067 1.62094116 49.55133057 C1.64081085 50.73225281 1.66068054 51.91317505 1.68115234 53.12988281 C1.69447601 54.16912903 1.70779968 55.20837524 1.7215271 56.27911377 C2.00026837 59.00262216 2.60274187 60.67171504 4 63 C12.32728947 63.02312684 20.65456563 63.04091683 28.98187923 63.05181217 C32.84820118 63.05704026 36.71450121 63.06413654 40.58081055 63.07543945 C44.30903401 63.086271 48.03723634 63.0922774 51.76547432 63.09487724 C53.19089656 63.09673101 54.61631759 63.10035071 56.04173088 63.10573006 C58.03163408 63.11294393 60.02155834 63.11340808 62.01147461 63.11352539 C63.71357338 63.11685631 63.71357338 63.11685631 65.45005798 63.12025452 C67.93459305 63.28974423 67.93459305 63.28974423 69 62 C69.12357078 60.06776005 69.17794458 58.13106201 69.20532227 56.19506836 C69.22526749 54.95385727 69.24521271 53.71264618 69.26576233 52.43382263 C69.28274793 51.0691643 69.29962669 49.70450463 69.31640625 48.33984375 C69.33696936 46.95121125 69.35796566 45.5625851 69.37937927 44.17396545 C69.43466647 40.51285941 69.48404626 36.85169627 69.53222656 33.19049072 C69.58239321 29.45702003 69.63810446 25.72363262 69.69335938 21.99023438 C69.80102218 14.6602267 69.90244894 7.33014995 70 0 C70.33 0 70.66 0 71 0 C71.02314367 8.17963488 71.04092544 16.35925613 71.05181217 24.53891563 C71.05703656 28.33682789 71.06412617 32.1347178 71.07543945 35.93261719 C71.08628408 39.59600673 71.09228019 43.25937473 71.09487724 46.92277908 C71.09672864 48.32225509 71.10034382 49.72172988 71.10573006 51.12119675 C71.11296126 53.07736822 71.11340823 55.03356126 71.11352539 56.98974609 C71.115746 58.1044931 71.11796661 59.21924011 71.12025452 60.36776733 C71 63 71 63 70 65 C61.16846012 65.04628239 52.3369618 65.08184825 43.50532722 65.10362434 C39.40471243 65.11407426 35.30418042 65.12825537 31.20361328 65.15087891 C27.24844419 65.1725644 23.29335489 65.18455952 19.33813095 65.18975449 C17.82700214 65.19345799 16.31587783 65.20068975 14.80478287 65.21146011 C12.69283768 65.22591823 10.58122476 65.22798037 8.46923828 65.22705078 C7.26566681 65.231492 6.06209534 65.23593323 4.822052 65.24050903 C2 65 2 65 0 63 C-0.24050903 60.36776733 -0.24050903 60.36776733 -0.22705078 56.98974609 C-0.22689972 55.72858978 -0.22674866 54.46743347 -0.22659302 53.1680603 C-0.21637898 51.78651778 -0.20594697 50.40497685 -0.1953125 49.0234375 C-0.19158288 47.61382243 -0.18873567 46.20420477 -0.18673706 44.79458618 C-0.17909655 41.08240618 -0.15944461 37.37038239 -0.1373291 33.65826416 C-0.11687959 29.87115594 -0.10773727 26.0840225 -0.09765625 22.296875 C-0.076199 14.86451207 -0.04205816 7.43227792 0 0 Z " fill="#020202" transform="translate(194,350)"/>
<path d="M0 0 C0.55220341 0.16173675 1.10440681 0.32347349 1.67334366 0.49011135 C4.25424068 1.05571705 6.58412243 1.13964745 9.22650146 1.15821838 C10.81240334 1.17290161 10.81240334 1.17290161 12.43034363 1.18788147 C13.58480484 1.19363693 14.73926605 1.1993924 15.92871094 1.20532227 C17.75838158 1.22017166 17.75838158 1.22017166 19.62501526 1.23532104 C22.9655757 1.2614869 26.30611252 1.28335796 29.6467123 1.30332303 C33.1394398 1.32521168 36.63212419 1.35258627 40.12481689 1.37937927 C46.73682118 1.42926726 53.34884943 1.47422051 59.96090055 1.51740164 C67.48929445 1.56680732 75.0176451 1.62171308 82.54599714 1.67708123 C98.03062477 1.79084148 113.51529221 1.89769346 129 2 C129 2.33 129 2.66 129 3 C86.76 3 44.52 3 1 3 C0.67 2.01 0.34 1.02 0 0 Z " fill="#1E1C1C" transform="translate(326,735)"/>
<path d="M0 0 C2.60357393 2.60357393 2.25544582 3.69444123 2.27124023 7.32006836 C2.28142685 8.43139633 2.29161346 9.5427243 2.30210876 10.68772888 C2.30424881 11.89292679 2.30638885 13.09812469 2.30859375 14.33984375 C2.33375014 16.87174713 2.35914822 19.40364812 2.38476562 21.93554688 C2.41355337 25.94294898 2.43777117 29.95030401 2.45629883 33.95776367 C2.477882 37.81450975 2.51731537 41.67076572 2.55859375 45.52734375 C2.55870956 46.73051743 2.55882538 47.9336911 2.5589447 49.17332458 C2.57228348 50.28780472 2.58562225 51.40228485 2.59936523 52.55053711 C2.60443588 53.53267685 2.60950653 54.51481659 2.61473083 55.52671814 C3.05728146 58.36772522 3.77552786 59.25142953 6 61 C1.125 60.125 1.125 60.125 0 59 C-0.09381302 57.15881971 -0.11743954 55.31402359 -0.11352539 53.47045898 C-0.11344986 52.28931015 -0.11337433 51.10816132 -0.11329651 49.89122009 C-0.10813522 48.6058284 -0.10297394 47.32043671 -0.09765625 45.99609375 C-0.0962413 44.68794205 -0.09482635 43.37979034 -0.09336853 42.03199768 C-0.0895441 38.54837141 -0.07971446 35.06478661 -0.06866455 31.58117676 C-0.05844882 28.02873292 -0.05387056 24.47628241 -0.04882812 20.92382812 C-0.03809212 13.94920168 -0.0210166 6.97460283 0 0 Z " fill="#1B1B1A" transform="translate(132,284)"/>
<path d="M0 0 C0.33 0 0.66 0 1 0 C1.02312792 7.80575195 1.04091738 15.61149595 1.05181217 23.41727352 C1.05704002 27.0414596 1.06413587 30.6656223 1.07543945 34.28979492 C1.08627184 37.78459975 1.09227758 41.27938204 1.09487724 44.77420235 C1.09763551 46.76239389 1.10544688 48.75057631 1.11329651 50.73875427 C1.11340981 52.54050865 1.11340981 52.54050865 1.11352539 54.37866211 C1.115746 55.44233505 1.11796661 56.506008 1.12025452 57.60191345 C1 60 1 60 0 61 C-1.41570123 61.08651611 -2.835595 61.10704904 -4.25390625 61.09765625 C-5.10791016 61.09443359 -5.96191406 61.09121094 -6.84179688 61.08789062 C-7.73962891 61.07951172 -8.63746094 61.07113281 -9.5625 61.0625 C-10.46419922 61.05798828 -11.36589844 61.05347656 -12.29492188 61.04882812 C-14.53001314 61.03700225 -16.76497437 61.0205222 -19 61 C-19 60.67 -19 60.34 -19 60 C-10.585 59.505 -10.585 59.505 -2 59 C-0.97593888 55.92781664 -0.8453464 53.73987825 -0.79467773 50.51879883 C-0.77473251 49.39786331 -0.75478729 48.2769278 -0.73423767 47.12202454 C-0.70916893 45.30785286 -0.70916893 45.30785286 -0.68359375 43.45703125 C-0.66281265 42.21829758 -0.64203156 40.9795639 -0.62062073 39.70329285 C-0.56628203 36.41374744 -0.51604049 33.12417274 -0.46777344 29.83453369 C-0.41749354 26.47622186 -0.36184139 23.11799954 -0.30664062 19.75976562 C-0.19946952 13.17324841 -0.09769865 6.58666416 0 0 Z " fill="#171615" transform="translate(326,284)"/>
<path d="M0 0 C0.33 0 0.66 0 1 0 C1.02684679 2.64590014 1.04676357 5.29153096 1.0625 7.9375 C1.07087891 8.69224609 1.07925781 9.44699219 1.08789062 10.22460938 C1.09652441 12.14994313 1.05224333 14.07535581 1 16 C0 17 0 17 -1.85766602 17.11352539 C-2.64842529 17.10828857 -3.43918457 17.10305176 -4.25390625 17.09765625 C-5.10791016 17.09443359 -5.96191406 17.09121094 -6.84179688 17.08789062 C-7.73962891 17.07951172 -8.63746094 17.07113281 -9.5625 17.0625 C-10.46419922 17.05798828 -11.36589844 17.05347656 -12.29492188 17.04882812 C-14.53001314 17.03700225 -16.76497437 17.0205222 -19 17 C-19 16.67 -19 16.34 -19 16 C-10.585 15.505 -10.585 15.505 -2 15 C-0.9458482 11.83754459 -0.68724328 9.13051782 -0.4375 5.8125 C-0.35371094 4.72582031 -0.26992188 3.63914062 -0.18359375 2.51953125 C-0.09271484 1.27236328 -0.09271484 1.27236328 0 0 Z " fill="#101010" transform="translate(326,328)"/>
<path d="M0 0 C0.66 0.33 1.32 0.66 2 1 C1.67 2.32 1.34 3.64 1 5 C-0.65 5 -2.3 5 -4 5 C-3.34 4.01 -2.68 3.02 -2 2 C-1.34 2 -0.68 2 0 2 C0 1.34 0 0.68 0 0 Z " fill="#141414" transform="translate(132,733)"/>
</svg>
