<?xml version="1.0" standalone="no"?>
<!DOCTYPE svg PUBLIC "-//W3C//DTD SVG 20010904//EN"
 "http://www.w3.org/TR/2001/REC-SVG-20010904/DTD/svg10.dtd">
<svg version="1.0" xmlns="http://www.w3.org/2000/svg"
 width="450.000000pt" height="450.000000pt" viewBox="0 0 450.000000 450.000000"
 preserveAspectRatio="xMidYMid meet">
<metadata>
Created by potrace 1.10, written by Peter Selinger 2001-2011
</metadata>
<g transform="translate(0.000000,450.000000) scale(0.050000,-0.050000)"
fill="#000000" stroke="none">
<path d="M0 4500 l0 -4500 4500 0 4500 0 0 4500 0 4500 -4500 0 -4500 0 0
-4500z m3360 2240 l10 -330 305 -6 305 -5 0 -327 c0 -245 6 -330 25 -335 14
-4 248 -4 520 -1 l495 7 0 328 0 328 305 5 305 6 10 330 10 330 680 0 680 0 0
-2570 0 -2570 -685 -5 -685 -6 -5 1546 -5 1545 -300 0 -300 0 -10 -310 -10
-310 -510 0 -510 0 -10 310 -10 310 -300 0 -300 0 -10 -1540 -10 -1540 -685
-5 -685 -6 0 2567 c0 1412 6 2573 14 2581 7 7 315 11 685 8 l671 -5 10 -330z"/>
</g>
</svg>
